<svg xmlns="http://www.w3.org/2000/svg" viewBox="0 0 415.65 64" width="415.65" height="64">
  <!-- Icon section -->
  <g transform="translate(8, 8)">
    <circle cx="26.52" cy="3.43" r="3.82" stroke="#5044e5" stroke-width="3.5" fill="none"/>
    <circle cx="45.63" cy="23.6" r="3.82" stroke="#5044e5" stroke-width="3.5" fill="none"/>
    <circle cx="26.52" cy="42.57" r="3.82" stroke="#5044e5" stroke-width="3.5" fill="none"/>
    <circle cx="7.16" cy="34.03" r="3.82" stroke="#5044e5" stroke-width="3.5" fill="none"/>
    <circle cx="7.16" cy="11.27" r="3.82" stroke="#5044e5" stroke-width="3.5" fill="none"/>
    <circle cx="26.51" cy="21.27" r="3.7" stroke="#5044e5" stroke-width="3.5" fill="none"/>
    <line x1="12.17" y1="8.3" x2="20.9" y2="4.93" stroke="#5044e5" stroke-width="3.5"/>
    <line x1="30.6" y1="7.59" x2="41.48" y2="19.52" stroke="#5044e5" stroke-width="3.5"/>
    <line x1="42.07" y1="28.2" x2="30.67" y2="38.49" stroke="#5044e5" stroke-width="3.5"/>
    <line x1="10.36" y1="16.13" x2="22.91" y2="38.01" stroke="#5044e5" stroke-width="3.5"/>
    <line x1="12.31" y1="36.74" x2="20.7" y2="40.63" stroke="#5044e5" stroke-width="3.5"/>
    <line x1="9.34" y1="28.63" x2="23.37" y2="8.32" stroke="#5044e5" stroke-width="3.5"/>
    <line x1="12.52" y1="13.55" x2="22.34" y2="19.1" stroke="#5044e5" stroke-width="3.5"/>
    <line x1="31.22" y1="21.8" x2="39.81" y2="22.45" stroke="#5044e5" stroke-width="3.5"/>
    <line x1="26.51" y1="25.98" x2="26.52" y2="36.74" stroke="#5044e5" stroke-width="3.5"/>
  </g>

  <!-- Text section -->
  <g transform="translate(72, 8)" fill="#5044e5">
    <path d="M13.30 7.15L6.15 7.40L4.20 18.30L0 18.30L0.85 3.85L33.10 3.85L33.70 18.30L29.75 18.30L27.80 7.40L20.75 7.15L20.75 37.50L27.75 38.00L27.75 41.00L6.90 41.00L6.90 38.00L13.30 37.50L13.30 7.15ZM37.05 27.15Q37.05 22.45 38.93 19.15Q40.80 15.85 43.95 14.18Q47.10 12.50 50.80 12.50Q57.10 12.50 60.53 16.38Q63.95 20.25 63.95 26.90Q63.95 31.65 62.08 34.98Q60.20 38.30 57.08 39.93Q53.95 41.55 50.20 41.55Q43.95 41.55 40.50 37.68Q37.05 33.80 37.05 27.15M50.60 38.30Q56.25 38.30 56.25 27.40Q56.25 21.70 54.90 18.73Q53.55 15.75 50.50 15.75Q44.70 15.75 44.70 26.65Q44.70 32.35 46.13 35.33Q47.55 38.30 50.60 38.30ZM68.50 27.15Q68.50 22.45 70.38 19.15Q72.25 15.85 75.40 14.18Q78.55 12.50 82.25 12.50Q88.55 12.50 91.97 16.38Q95.40 20.25 95.40 26.90Q95.40 31.65 93.53 34.98Q91.65 38.30 88.53 39.93Q85.40 41.55 81.65 41.55Q75.40 41.55 71.95 37.68Q68.50 33.80 68.50 27.15M82.05 38.30Q87.70 38.30 87.70 27.40Q87.70 21.70 86.35 18.73Q85 15.75 81.95 15.75Q76.15 15.75 76.15 26.65Q76.15 32.35 77.58 35.33Q79 38.30 82.05 38.30ZM102.85 4.45L99.15 3.80L99.15 1.10L108.40 0L108.50 0L109.85 0.95L109.85 37.60L113.50 38.00L113.50 41.00L99.35 41.00L99.35 38.00L102.85 37.55L102.85 4.45ZM120.65 7.60L116.70 6.95L116.70 3.85L128.05 3.85L142.95 26.35L145.75 32.05L145.75 7.60L141.45 6.95L141.45 3.85L153.85 3.85L153.85 6.95L150 7.60L150 41.00L143.95 41.00L128.40 17.35L124.90 10.75L124.90 37.50L129.95 38.00L129.95 41.00L116.70 41.00L116.70 38.00L120.65 37.50L120.65 7.60ZM169.70 41.55Q163.10 41.55 159.88 37.68Q156.65 33.80 156.65 27.10Q156.65 22.60 158.33 19.30Q160.00 16.00 163.05 14.25Q166.10 12.50 170.10 12.50Q175.10 12.50 177.80 15.13Q180.50 17.75 180.60 22.60Q180.60 25.90 180.20 27.50L163.95 27.50Q164.15 32.05 166.10 34.58Q168.05 37.10 171.65 37.10Q173.60 37.10 175.68 36.45Q177.75 35.80 178.95 34.90L180.20 37.65Q178.85 39.10 175.83 40.33Q172.80 41.55 169.70 41.55M173.60 24.50Q173.70 23.10 173.70 22.35Q173.70 15.70 169.25 15.70Q166.80 15.70 165.45 17.65Q164.10 19.60 163.95 24.50L173.60 24.50ZM190.15 36.90Q190.55 37.50 191.98 38.03Q193.40 38.55 194.85 38.55Q197.20 38.55 198.38 37.58Q199.55 36.60 199.55 35.00Q199.55 33.35 198.10 32.33Q196.65 31.30 193.20 29.80L191.80 29.20Q188.35 27.75 186.65 25.70Q184.95 23.65 184.95 20.40Q184.95 18.15 186.30 16.38Q187.65 14.60 190.10 13.60Q192.55 12.60 195.75 12.60Q198.10 12.60 199.78 12.90Q201.45 13.20 203.30 13.70Q204.30 14.05 204.80 14.10L204.80 20.65L200.85 20.65L199.70 16.85Q199.40 16.35 198.35 15.95Q197.30 15.55 195.95 15.55Q193.90 15.55 192.68 16.43Q191.45 17.30 191.45 18.85Q191.45 20.25 192.30 21.18Q193.15 22.10 194.15 22.60Q195.15 23.10 197.85 24.25Q200.55 25.40 202.33 26.45Q204.10 27.50 205.28 29.18Q206.45 30.85 206.45 33.25Q206.45 36.95 203.55 39.25Q200.65 41.55 195.20 41.55Q192.65 41.55 190.63 41.10Q188.60 40.65 185.95 39.90L184.85 39.55L184.85 32.95L189.00 32.95L190.15 36.90ZM218.95 41.45Q215.80 41.45 214.30 40.00Q212.80 38.55 212.80 35.40L212.80 17.05L209.55 17.05L209.55 14.45Q209.95 14.30 211 13.93Q212.05 13.55 212.60 13.30Q213.45 12.65 214.05 11.05Q214.50 10.00 215.70 5.85L219.70 5.85L219.90 13.20L227.55 13.20L227.55 17.05L219.95 17.05L219.95 31.10Q219.95 33.90 220.10 35.05Q220.25 36.20 220.75 36.53Q221.25 36.85 222.50 36.85Q223.75 36.85 225.10 36.58Q226.45 36.30 227.35 35.90L228.30 38.70Q226.90 39.75 224.20 40.60Q221.50 41.45 218.95 41.45ZM235.65 41.45Q234.10 41.45 232.95 40.38Q231.80 39.30 231.80 37.65Q231.80 35.80 233.13 34.63Q234.45 33.45 236.35 33.45Q238.15 33.45 239.20 34.58Q240.25 35.70 240.25 37.25Q240.25 39.20 238.98 40.33Q237.70 41.45 235.65 41.45ZM245.05 33.20Q245.05 28.65 249.63 26.35Q254.20 24.05 261.45 24.00L261.45 22.85Q261.45 20.80 261.03 19.65Q260.60 18.50 259.48 17.93Q258.35 17.35 256.20 17.35Q253.75 17.35 251.80 17.98Q249.85 18.60 247.75 19.60L246.20 16.40Q246.95 15.75 248.73 14.85Q250.50 13.95 252.95 13.28Q255.40 12.60 258 12.60Q261.85 12.60 264.03 13.60Q266.20 14.60 267.15 16.80Q268.10 19.00 268.10 22.70L268.10 38.00L270.80 38.00L270.80 40.80Q269.80 41.05 267.95 41.30Q266.10 41.55 264.70 41.55Q263 41.55 262.43 41.05Q261.85 40.55 261.85 39.00L261.85 37.65Q260.50 39.15 258.35 40.35Q256.20 41.55 253.50 41.55Q251.20 41.55 249.28 40.58Q247.35 39.60 246.20 37.73Q245.05 35.85 245.05 33.20M256.70 37.40Q257.75 37.40 259.10 36.78Q260.45 36.15 261.45 35.25L261.45 27.05Q256.95 27.05 254.73 28.58Q252.50 30.10 252.50 32.50Q252.50 34.90 253.63 36.15Q254.75 37.40 256.70 37.40ZM279.85 8.65Q278.05 8.65 277.00 7.60Q275.95 6.55 275.95 4.90Q275.95 3.00 277.15 1.75Q278.35 0.50 280.35 0.50Q282.35 0.50 283.40 1.57Q284.45 2.65 284.45 4.25Q284.45 6.25 283.25 7.45Q282.05 8.65 279.90 8.65L279.85 8.65M277.20 17.95L273.65 17.00L273.65 13.65L282.80 12.55L282.90 12.55L284.30 13.55L284.30 37.60L287.65 38.00L287.65 41.00L273.70 41.00L273.70 38.00L277.20 37.55L277.20 17.95Z"/>
  </g>
</svg>